HIERARCHY
ROOT Hips
{
	OFFSET 0.000000 0.000000 0.000000
	CHANNELS 6 Xposition Yposition Zposition Zrotation Yrotation Xrotation 
	JOINT LowerBack
	{
		OFFSET 0.000000 0.000000 0.000000
		CHANNELS 3 Zrotation Yrotation Xrotation
		JOINT Spine
		{
			OFFSET 0.028270 2.035590 -0.193380
			CHANNELS 3 Zrotation Yrotation Xrotation
			JOINT Spine1
			{
				OFFSET 0.056720 2.048850 -0.042750
				CHANNELS 3 Zrotation Yrotation Xrotation
				JOINT Neck
				{
					OFFSET 0.000000 0.000000 0.000000
					CHANNELS 3 Zrotation Yrotation Xrotation
					JOINT Neck1
					{
						OFFSET -0.054170 1.746240 0.172020
						CHANNELS 3 Zrotation Yrotation Xrotation
						JOINT Head
						{
							OFFSET 0.104070 1.761360 -0.123970
							CHANNELS 3 Zrotation Yrotation Xrotation
							End Site
							{
								OFFSET 0.000000 0.000000 0.000000
							}
						}
					}
				}
				JOINT LeftShoulder
				{
					OFFSET 0.000000 0.000000 0.000000
					CHANNELS 3 Zrotation Yrotation Xrotation
					JOINT LeftArm
					{
						OFFSET 3.362410 1.200890 -0.311210
						CHANNELS 3 Zrotation Yrotation Xrotation
						JOINT LeftForeArm
						{
							OFFSET 4.983000 -0.000000 -0.000000
							CHANNELS 3 Zrotation Yrotation Xrotation
							JOINT LeftHand
							{
								OFFSET 3.483560 -0.000000 -0.000000
								CHANNELS 3 Zrotation Yrotation Xrotation
								JOINT LeftFingerBase
								{
									OFFSET 0.000000 0.000000 0.000000
									CHANNELS 3 Zrotation Yrotation Xrotation
									JOINT LeftHandIndex1
									{
										OFFSET 0.715260 -0.000000 -0.000000
										CHANNELS 3 Zrotation Yrotation Xrotation
										End Site
										{
											OFFSET 0.000000 0.000000 0.000000
										}
									}
								}
								JOINT LThumb
								{
									OFFSET 0.000000 0.000000 0.000000
									CHANNELS 3 Zrotation Yrotation Xrotation
									End Site
									{
										OFFSET 0.000000 0.000000 0.000000
									}
								}
							}
						}
					}
				}
				JOINT RightShoulder
				{
					OFFSET 0.000000 0.000000 0.000000
					CHANNELS 3 Zrotation Yrotation Xrotation
					JOINT RightArm
					{
						OFFSET -3.136600 1.374050 -0.404650
						CHANNELS 3 Zrotation Yrotation Xrotation
						JOINT RightForeArm
						{
							OFFSET -5.241900 -0.000000 -0.000000
							CHANNELS 3 Zrotation Yrotation Xrotation
							JOINT RightHand
							{
								OFFSET -3.444170 -0.000000 -0.000000
								CHANNELS 3 Zrotation Yrotation Xrotation
								JOINT RightFingerBase
								{
									OFFSET 0.000000 0.000000 0.000000
									CHANNELS 3 Zrotation Yrotation Xrotation
									JOINT RightHandIndex1
									{
										OFFSET -0.622530 -0.000000 -0.000000
										CHANNELS 3 Zrotation Yrotation Xrotation
										End Site
										{
											OFFSET 0.000000 0.000000 0.000000
										}
									}
								}
								JOINT RThumb
								{
									OFFSET 0.000000 0.000000 0.000000
									CHANNELS 3 Zrotation Yrotation Xrotation
									End Site
									{
										OFFSET 0.000000 0.000000 0.000000
									}
								}
							}
						}
					}
				}
			}
		}
	}
}
}
MOTION
Frames: 17
Frame Time: 0.008333
5.858509 16.505689 -7.789969 -176.788071 29.634530 -169.533699 8.293103 -4.945096 -4.627060 1.315775 -5.683443 -3.834239 -6.060857 -5.704477 -0.198917 11.173417 -16.664357 -8.739435 -3.778612 -0.287473 -0.204821 0.000000 0.000000 0.000000 5.028400 -0.734290 -0.991334 -48.047222 -28.716756 -4.977429 -0.733944 -78.399759 -0.097409 9.822052 -3.571258 -0.361892 -0.082234 0.627980 0.000000 0.000000 0.000000 0.000000 0.000000 0.000000 0.000000 18.853766 -16.331102 1.917794 64.686699 -21.992861 13.881818 4.067321 30.189111 -0.013658 9.553763 -3.584101 -0.303383 0.049311 0.062839 -0.000000 0.000000 0.000000 0.000000 0.000000 0.000000 0.000000 
5.941319 16.476815 -7.896545 -176.282624 28.937753 -169.542808 8.636237 -4.898555 -4.400467 1.356457 -5.663139 -3.836422 -6.183628 -5.690002 -0.371514 11.332314 -16.056446 -8.584103 -3.926916 -0.300287 -0.167260 0.000000 0.000000 0.000000 4.831816 -1.130314 -0.882120 -50.112588 -27.741487 -4.908880 -0.774715 -77.212041 -0.097895 10.153496 -3.867812 -0.399907 -0.088825 0.616530 0.000000 0.000000 0.000000 0.000000 0.000000 0.000000 0.000000 19.485518 -15.733511 1.923347 63.955577 -20.951954 14.381140 4.056605 29.853164 -0.012859 9.260072 -3.472432 -0.284672 0.050481 0.060119 -0.000000 0.000000 0.000000 0.000000 0.000000 0.000000 0.000000 
6.020130 16.449680 -7.998261 -175.711728 28.224082 -169.557486 9.004645 -4.858675 -4.108571 1.397459 -5.648540 -3.828771 -6.319531 -5.682054 -0.556922 11.528085 -15.371115 -8.412549 -4.078232 -0.313069 -0.126364 0.000000 0.000000 0.000000 4.705776 -1.544380 -0.771244 -52.240537 -26.703393 -4.969587 -0.819033 -75.839977 -0.098974 10.578397 -4.223373 -0.448963 -0.094879 0.604096 0.000000 0.000000 0.000000 0.000000 0.000000 0.000000 0.000000 20.160127 -15.079759 1.940520 63.255806 -19.787715 14.703702 4.052440 29.352512 -0.012115 8.895065 -3.452280 -0.271561 0.052348 0.057273 -0.000000 0.000000 0.000000 0.000000 0.000000 0.000000 0.000000 
6.095678 16.424697 -8.094943 -175.102698 27.494885 -169.587339 9.373517 -4.826641 -3.761811 1.435001 -5.638729 -3.808663 -6.463641 -5.679151 -0.738160 11.757664 -14.662024 -8.242495 -4.224614 -0.324971 -0.086910 0.000000 0.000000 0.000000 4.646026 -1.953072 -0.661731 -54.408490 -25.650603 -5.151203 -0.863443 -74.228380 -0.100662 11.114428 -4.637117 -0.511363 -0.100316 0.590210 0.000000 0.000000 0.000000 0.000000 0.000000 0.000000 0.000000 20.855712 -14.427301 1.966450 62.587583 -18.435721 14.935863 4.051969 28.657098 -0.011394 8.437624 -3.501321 -0.260748 0.054889 0.054230 -0.000000 0.000000 0.000000 0.000000 0.000000 0.000000 0.000000 
6.168648 16.402446 -8.186709 -174.475012 26.751596 -169.634293 9.729340 -4.801469 -3.378151 1.466034 -5.632151 -3.778934 -6.617337 -5.679406 -0.913849 12.014806 -13.916006 -8.070017 -4.366628 -0.336103 -0.047685 0.000000 0.000000 0.000000 4.644279 -2.354132 -0.547423 -56.584913 -24.602224 -5.443565 -0.905474 -72.337384 -0.102852 11.775119 -5.100266 -0.588717 -0.105211 0.574253 0.000000 0.000000 0.000000 0.000000 0.000000 0.000000 0.000000 21.570056 -13.758334 1.997149 61.969325 -16.942607 14.989731 4.055892 27.802297 -0.010743 7.908914 -3.630702 -0.252738 0.057970 0.050944 -0.000000 0.000000 0.000000 0.000000 0.000000 0.000000 0.000000 
6.239727 16.383522 -8.273972 -173.849630 25.996406 -169.699632 10.055700 -4.781641 -2.977112 1.487422 -5.626830 -3.741785 -6.780514 -5.680507 -1.078194 12.291459 -13.135176 -7.896239 -4.503211 -0.346414 -0.008858 0.000000 0.000000 0.000000 4.687013 -2.737069 -0.423100 -58.735310 -23.588317 -5.826596 -0.942569 -70.125745 -0.105326 12.568109 -5.595915 -0.682025 -0.109543 0.555536 0.000000 0.000000 0.000000 0.000000 0.000000 0.000000 0.000000 22.294141 -13.069103 2.028027 61.413495 -15.336926 14.813702 4.063296 26.816115 -0.010169 7.317405 -3.827833 -0.245827 0.061458 0.047304 -0.000000 0.000000 0.000000 0.000000 0.000000 0.000000 0.000000 
6.309585 16.368637 -8.357323 -173.245260 25.232645 -169.779723 10.343294 -4.764747 -2.578531 1.499286 -5.620673 -3.695581 -6.946704 -5.679755 -1.207995 12.576551 -12.394013 -7.746611 -4.627555 -0.355229 0.022777 0.000000 0.000000 0.000000 4.751914 -3.070134 -0.291844 -60.829359 -22.665045 -6.266562 -0.972467 -67.550132 -0.107751 13.491929 -6.098717 -0.790189 -0.113119 0.533401 0.000000 0.000000 0.000000 0.000000 0.000000 0.000000 0.000000 23.001615 -12.432027 2.053977 60.907754 -13.539599 14.522250 4.069293 25.688856 -0.009613 6.638322 -4.042141 -0.234715 0.065273 0.043193 -0.000000 0.000000 0.000000 0.000000 0.000000 0.000000 0.000000 
6.378757 16.358458 -8.437324 -172.680982 24.463057 -169.876275 10.576781 -4.748631 -2.199551 1.498288 -5.611520 -3.644586 -7.117109 -5.675018 -1.306445 12.860307 -11.665186 -7.610704 -4.743097 -0.363019 0.050242 0.000000 0.000000 0.000000 4.826317 -3.355586 -0.146009 -62.832737 -21.839846 -6.738166 -0.994252 -64.588976 -0.109699 14.536285 -6.570651 -0.909505 -0.115697 0.507256 0.000000 0.000000 0.000000 0.000000 0.000000 0.000000 0.000000 23.692617 -11.809019 2.070955 60.466229 -11.629134 14.002592 4.073213 24.482249 -0.009086 5.890883 -4.256136 -0.218503 0.069230 0.038501 -0.000000 0.000000 0.000000 0.000000 0.000000 0.000000 0.000000 
6.447585 16.353674 -8.514742 -172.166444 23.691184 -169.983673 10.752245 -4.730105 -1.854731 1.485183 -5.596973 -3.588937 -7.286140 -5.663707 -1.360480 13.130990 -10.995577 -7.502602 -4.847241 -0.369597 0.069880 0.000000 0.000000 0.000000 4.891669 -3.576363 0.012300 -64.720408 -21.142169 -7.209415 -1.007939 -61.221546 -0.110703 15.678258 -6.966785 -1.032667 -0.116777 0.476801 0.000000 0.000000 0.000000 0.000000 0.000000 0.000000 0.000000 24.350120 -11.241668 2.075639 60.075044 -9.570106 13.326733 4.070842 23.216432 -0.008541 5.061507 -4.418683 -0.193989 0.073244 0.033170 -0.000000 0.000000 0.000000 0.000000 0.000000 0.000000 0.000000 
6.516379 16.354852 -8.590138 -171.711080 22.921573 -170.099945 10.866391 -4.705963 -1.555378 1.459569 -5.574512 -3.533475 -7.451799 -5.643825 -1.378392 13.376091 -10.354220 -7.407491 -4.943104 -0.375447 0.085945 0.000000 0.000000 0.000000 4.936517 -3.743857 0.188519 -66.468174 -20.560995 -7.663233 -1.014845 -57.447600 -0.110360 16.882518 -7.234185 -1.147764 -0.115686 0.442124 0.000000 0.000000 0.000000 0.000000 0.000000 0.000000 0.000000 24.966175 -10.688842 2.067497 59.740997 -7.442431 12.406430 4.060969 21.955798 -0.007967 4.166148 -4.500381 -0.161674 0.077168 0.027102 -0.000000 0.000000 0.000000 0.000000 0.000000 0.000000 0.000000 
6.585177 16.362416 -8.664164 -171.319940 22.157956 -170.220501 10.917796 -4.673698 -1.307051 1.422620 -5.542053 -3.478169 -7.607687 -5.613340 -1.353690 13.586706 -9.779386 -7.334413 -5.029302 -0.380509 0.096160 0.000000 0.000000 0.000000 4.949076 -3.852402 0.378409 -68.060752 -20.105512 -8.079784 -1.017165 -53.270108 -0.108375 18.098983 -7.323456 -1.239482 -0.111682 0.403856 0.000000 0.000000 0.000000 0.000000 0.000000 0.000000 0.000000 25.528962 -10.185241 2.046395 59.443076 -5.218951 11.335217 4.039935 20.729938 -0.007331 3.200169 -4.453925 -0.121856 0.080957 0.020303 -0.000000 0.000000 0.000000 0.000000 0.000000 0.000000 0.000000 
6.653824 16.376555 -8.737283 -170.995111 21.403071 -170.343024 10.906253 -4.631432 -1.112945 1.374594 -5.497978 -3.427645 -7.750896 -5.571409 -1.300602 13.752401 -9.230892 -7.263923 -5.108321 -0.385214 0.106049 0.000000 0.000000 0.000000 4.924339 -3.923061 0.585703 -69.484919 -19.748673 -8.458861 -1.018033 -48.711015 -0.104672 19.263038 -7.189400 -1.290005 -0.104024 0.363235 0.000000 0.000000 0.000000 0.000000 0.000000 0.000000 0.000000 26.026975 -9.682721 2.015524 59.184156 -2.987013 10.049196 4.006990 19.605716 -0.006628 2.189449 -4.256999 -0.078436 0.084497 0.012686 -0.000000 0.000000 0.000000 0.000000 0.000000 0.000000 0.000000 
6.722246 16.397176 -8.809813 -170.739349 20.659185 -170.467838 10.832091 -4.578581 -0.970874 1.316118 -5.441498 -3.385226 -7.877558 -5.517979 -1.232819 13.864409 -8.676112 -7.179113 -5.180891 -0.389798 0.120417 0.000000 0.000000 0.000000 4.859832 -3.977555 0.812100 -70.733898 -19.461910 -8.809031 -1.021110 -43.803352 -0.099415 20.296537 -6.803232 -1.282714 -0.092243 0.322114 0.000000 0.000000 0.000000 0.000000 0.000000 0.000000 0.000000 26.443660 -9.143150 1.979534 58.964012 -0.818832 8.522804 3.960937 18.642151 -0.005859 1.163160 -3.891698 -0.036513 0.087660 0.004146 -0.000000 0.000000 0.000000 0.000000 0.000000 0.000000 0.000000 
6.790152 16.423939 -8.882050 -170.550988 19.929029 -170.594365 10.698025 -4.515645 -0.869049 1.249620 -5.372356 -3.344366 -7.980003 -5.452001 -1.133750 13.925995 -8.214592 -7.111958 -5.242815 -0.393760 0.130650 0.000000 0.000000 0.000000 4.751816 -3.999895 1.042141 -71.812744 -19.262585 -9.131596 -1.031721 -38.579026 -0.092916 21.112834 -6.166423 -1.207488 -0.076620 0.282654 0.000000 0.000000 0.000000 0.000000 0.000000 0.000000 0.000000 26.780543 -8.671734 1.940513 58.732568 1.410275 7.063591 3.900011 17.840725 -0.005040 0.122464 -3.339960 -0.000785 0.090610 -0.005061 0.000000 0.000000 0.000000 0.000000 0.000000 0.000000 0.000000 
6.857325 16.456204 -8.954081 -170.426717 19.216070 -170.727547 10.508129 -4.443169 -0.795379 1.175682 -5.290310 -3.307527 -8.058026 -5.373833 -1.022924 13.933864 -7.795793 -7.040958 -5.295364 -0.397360 0.142727 0.000000 0.000000 0.000000 4.601512 -4.016875 1.277739 -72.721843 -19.109122 -9.464394 -1.054641 -33.098300 -0.085698 21.626110 -5.304243 -1.064209 -0.057956 0.247176 0.000000 0.000000 0.000000 0.000000 0.000000 0.000000 0.000000 27.027284 -8.213546 1.905048 58.495135 3.607090 5.635030 3.826244 17.259626 -0.004213 -0.887530 -2.623347 0.022444 0.093264 -0.015011 0.000000 0.000000 0.000000 0.000000 0.000000 0.000000 0.000000 
6.923493 16.493123 -9.025950 -170.360820 18.524969 -170.874128 10.266495 -4.362317 -0.734975 1.094884 -5.195541 -3.276037 -8.112529 -5.284103 -0.918130 13.885504 -7.369681 -6.947322 -5.337932 -0.400657 0.161808 0.000000 0.000000 0.000000 4.408037 -4.043818 1.520134 -73.464036 -18.965603 -9.855882 -1.093866 -27.429384 -0.078321 21.766062 -4.273545 -0.865866 -0.037830 0.217651 0.000000 0.000000 0.000000 0.000000 0.000000 0.000000 0.000000 27.166916 -7.714679 1.879089 58.261487 5.685097 4.195151 3.741014 16.942813 -0.003422 -1.821876 -1.773856 0.029477 0.095475 -0.025807 0.000000 0.000000 0.000000 0.000000 0.000000 0.000000 0.000000 
6.988456 16.533823 -9.097668 -170.343472 17.860962 -171.037248 9.984595 -4.273076 -0.674512 1.009069 -5.087833 -3.251209 -8.145365 -5.182797 -0.836729 13.781700 -6.913109 -6.817595 -5.369828 -0.403683 0.191686 0.000000 0.000000 0.000000 4.173759 -4.125065 1.767905 -74.041634 -18.753494 -10.394593 -1.149365 -21.695917 -0.071190 21.489653 -3.148938 -0.635754 -0.018178 0.195076 0.000000 0.000000 0.000000 0.000000 0.000000 0.000000 0.000000 27.189423 -7.154017 1.869686 58.025913 7.595400 2.774420 3.645810 16.915988 -0.002713 -2.644293 -0.829923 0.019212 0.097125 -0.037491 0.000000 0.000000 0.000000 0.000000 0.000000 0.000000 0.000000 
